#define close_width 10
#define close_height 10
static unsigned char close_bits[] = {
   0xf3, 0x03, 0xf3, 0x03, 0x03, 0x00, 0x03, 0x03, 0x03, 0x03, 0x03, 0x03,
   0x00, 0x03, 0x00, 0x03, 0x3f, 0x03, 0x3f, 0x03 };
