#define max_toogled_hover_width 10
#define max_toogled_hover_height 10
static unsigned char max_toogled_hover_bits[] = {
   0xcf, 0x03, 0xcf, 0x03, 0x03, 0x03, 0x03, 0x03, 0x00, 0x00, 0x00, 0x00,
   0x03, 0x03, 0x03, 0x03, 0xcf, 0x03, 0xcf, 0x03 };
