#define close_hover_width 8
#define close_hover_height 8
static unsigned char close_hover_bits[] = {
   0xfb, 0xfb, 0xc3, 0xc3, 0xc3, 0xc0, 0xdf, 0xdf };
